<?xml version="1.0" standalone="no"?>
<!DOCTYPE svg PUBLIC "-//W3C//DTD SVG 20010904//EN"
 "http://www.w3.org/TR/2001/REC-SVG-20010904/DTD/svg10.dtd">
<svg version="1.0" xmlns="http://www.w3.org/2000/svg"
 width="512.000000pt" height="512.000000pt" viewBox="0 0 512.000000 512.000000"
 preserveAspectRatio="xMidYMid meet">
<metadata>
Created by potrace 1.14, written by Peter Selinger 2001-2017
</metadata>
<g transform="translate(0.000000,512.000000) scale(0.100000,-0.100000)"
fill="#000000" stroke="none">
<path d="M1474 4770 c-105 -18 -270 -66 -280 -81 -3 -5 -13 -9 -23 -9 -23 0
-180 -91 -265 -155 -420 -312 -623 -888 -491 -1395 17 -66 59 -189 73 -216 5
-10 22 -44 37 -74 91 -180 265 -374 450 -501 28 -19 52 -36 55 -39 16 -17 198
-119 303 -169 468 -223 986 -298 1327 -192 l65 20 28 -27 c16 -15 225 -224
465 -464 l437 -437 -13 -53 c-14 -55 -20 -252 -9 -301 57 -271 315 -422 572
-337 128 43 236 157 270 287 8 31 16 57 17 58 2 2 30 10 62 20 281 80 399 422
229 659 -68 95 -167 157 -290 181 -54 11 -202 5 -274 -10 l-73 -15 -469 468
-468 469 15 59 c39 152 48 284 32 489 -4 54 -9 101 -11 105 -1 3 -6 28 -9 55
-10 73 -60 265 -99 380 -44 129 -76 205 -142 337 -216 429 -495 699 -858 828
-109 39 -144 47 -280 69 -85 14 -278 10 -383 -9z"/>
</g>
</svg>
